<?xml version="1.0" encoding="utf-8" standalone="no"?>
<!DOCTYPE svg PUBLIC "-//W3C//DTD SVG 1.1//EN"
  "http://www.w3.org/Graphics/SVG/1.1/DTD/svg11.dtd">
<!-- Created with matplotlib (https://matplotlib.org/) -->
<svg height="360pt" version="1.1" viewBox="0 0 360 360" width="360pt" xmlns="http://www.w3.org/2000/svg" xmlns:xlink="http://www.w3.org/1999/xlink">
 <defs>
  <style type="text/css">
*{stroke-linecap:butt;stroke-linejoin:round;}
  </style>
 </defs>
 <g id="figure_1">
  <g id="patch_1">
   <path d="M 0 360 
L 360 360 
L 360 0 
L 0 0 
z
" style="fill:none;"/>
  </g>
  <g id="axes_1">
   <g id="patch_2">
    <path d="M 180 36 
C 164.510051 36 149.121086 38.49936 134.427317 43.401572 
C 119.733548 48.303784 105.926563 55.54493 93.539488 64.845409 
C 81.152413 74.145888 70.34676 85.384433 61.539766 98.127092 
C 52.732772 110.869752 46.039268 124.950379 41.71771 139.825279 
C 37.396151 154.70018 35.502886 170.175404 36.111019 185.653411 
C 36.719151 201.131419 39.820752 216.410394 45.296059 230.900375 
C 50.771366 245.390356 58.548989 258.90241 68.328611 270.9148 
C 78.108234 282.92719 89.762342 293.283289 102.840939 301.58322 
C 115.919535 309.88315 130.252092 316.01869 145.285188 319.752931 
C 160.318284 323.487172 175.855907 324.771423 191.298106 323.556096 
C 206.740305 322.340769 221.885733 318.641711 236.149583 312.601751 
C 250.413433 306.561791 263.609722 298.259684 275.228905 288.015997 
C 286.848088 277.77231 296.738665 265.720608 304.518733 252.326241 
C 312.298801 238.931874 317.866918 224.369488 321.008084 209.201376 
C 324.149249 194.033264 324.822506 178.457201 323.001859 163.074621 
C 321.181211 147.692041 316.890397 132.703513 310.295098 118.687788 
L 284.236079 130.95023 
C 289.512318 142.162811 292.944969 154.153632 294.401487 166.459697 
C 295.858005 178.765761 295.319399 191.226612 292.806467 203.361101 
C 290.293534 215.49559 285.839041 227.145499 279.614986 237.860993 
C 273.390932 248.576487 265.47847 258.217848 256.183124 266.412798 
C 246.887778 274.607747 236.330746 281.249433 224.919666 286.081401 
C 213.508586 290.913368 201.392244 293.872616 189.038485 294.844877 
C 176.684725 295.817139 164.254627 294.789738 152.22815 291.802345 
C 140.201673 288.814952 128.735628 283.90652 118.272751 277.266576 
C 107.809874 270.626631 98.486587 262.341752 90.662889 252.73184 
C 82.839191 243.121928 76.617093 232.312285 72.236847 220.7203 
C 67.856601 209.128316 65.375321 196.905135 64.888815 184.522729 
C 64.402309 172.140323 65.916921 159.760144 69.374168 147.860223 
C 72.831414 135.960303 78.186217 124.695802 85.231813 114.501674 
C 92.277408 104.307546 100.921931 95.31671 110.831591 87.876327 
C 120.74125 80.435944 131.786839 74.643027 143.541854 70.721257 
C 155.296869 66.799488 167.608041 64.8 180 64.8 
L 180 36 
z
" style="fill:#aa5555;"/>
   </g>
   <g id="patch_3">
    <path d="M 310.295098 118.687788 
C 298.661586 93.965312 280.228526 73.057109 257.159061 58.41678 
C 234.089596 43.776452 207.322873 36 180 36 
L 180 64.8 
C 201.858299 64.8 223.271677 71.021162 241.727249 82.733424 
C 260.182821 94.445687 274.929269 111.17225 284.236079 130.95023 
L 310.295098 118.687788 
z
" style="fill:#55aa55;"/>
   </g>
  </g>
 </g>
</svg>
