<?xml version="1.0" encoding="utf-8" standalone="no"?>
<!DOCTYPE svg PUBLIC "-//W3C//DTD SVG 1.1//EN"
  "http://www.w3.org/Graphics/SVG/1.1/DTD/svg11.dtd">
<!-- Created with matplotlib (https://matplotlib.org/) -->
<svg height="360pt" version="1.1" viewBox="0 0 360 360" width="360pt" xmlns="http://www.w3.org/2000/svg" xmlns:xlink="http://www.w3.org/1999/xlink">
 <metadata>
  <rdf:RDF xmlns:cc="http://creativecommons.org/ns#" xmlns:dc="http://purl.org/dc/elements/1.1/" xmlns:rdf="http://www.w3.org/1999/02/22-rdf-syntax-ns#">
   <cc:Work>
    <dc:type rdf:resource="http://purl.org/dc/dcmitype/StillImage"/>
    <dc:date>2021-05-23T22:37:20.269923</dc:date>
    <dc:format>image/svg+xml</dc:format>
    <dc:creator>
     <cc:Agent>
      <dc:title>Matplotlib v3.3.2, https://matplotlib.org/</dc:title>
     </cc:Agent>
    </dc:creator>
   </cc:Work>
  </rdf:RDF>
 </metadata>
 <defs>
  <style type="text/css">*{stroke-linecap:butt;stroke-linejoin:round;}</style>
 </defs>
 <g id="figure_1">
  <g id="patch_1">
   <path d="M 0 360 
L 360 360 
L 360 0 
L 0 0 
z
" style="fill:none;"/>
  </g>
  <g id="axes_1">
   <g id="patch_2">
    <path d="M 324 180 
C 324 161.090093 320.275161 142.364062 313.038653 124.893586 
C 305.802145 107.42311 295.1947 91.547947 281.823376 78.176624 
C 268.452053 64.8053 252.57689 54.197855 235.106414 46.961347 
C 217.635938 39.724839 198.909907 36 180 36 
C 161.090093 36 142.364062 39.724839 124.893586 46.961347 
C 107.42311 54.197855 91.547947 64.8053 78.176624 78.176624 
C 64.8053 91.547947 54.197855 107.42311 46.961347 124.893586 
C 39.724839 142.364062 36 161.090093 36 180 
C 36 198.909907 39.724839 217.635938 46.961347 235.106414 
C 54.197855 252.57689 64.8053 268.452053 78.176624 281.823376 
C 91.547947 295.1947 107.42311 305.802145 124.893586 313.038653 
C 142.364062 320.275161 161.090093 324 180 324 
C 198.909907 324 217.635938 320.275161 235.106414 313.038653 
C 252.57689 305.802145 268.452053 295.1947 281.823376 281.823376 
C 295.1947 268.452053 305.802145 252.57689 313.038653 235.106414 
C 320.275161 217.635938 324 198.909907 324 180 
M 295.2 180 
C 295.2 195.127925 292.220129 210.108751 286.430922 224.085131 
C 280.641716 238.061512 272.15576 250.761643 261.458701 261.458701 
C 250.761643 272.15576 238.061512 280.641716 224.085131 286.430922 
C 210.108751 292.220129 195.127925 295.2 180 295.2 
C 164.872075 295.2 149.891249 292.220129 135.914869 286.430922 
C 121.938488 280.641716 109.238357 272.15576 98.541299 261.458701 
C 87.84424 250.761643 79.358284 238.061512 73.569078 224.085131 
C 67.779871 210.108751 64.8 195.127925 64.8 180 
C 64.8 164.872075 67.779871 149.891249 73.569078 135.914869 
C 79.358284 121.938488 87.84424 109.238357 98.541299 98.541299 
C 109.238357 87.84424 121.938488 79.358284 135.914869 73.569078 
C 149.891249 67.779871 164.872075 64.8 180 64.8 
C 195.127925 64.8 210.108751 67.779871 224.085131 73.569078 
C 238.061512 79.358284 250.761643 87.84424 261.458701 98.541299 
C 272.15576 109.238357 280.641716 121.938488 286.430922 135.914869 
C 292.220129 149.891249 295.2 164.872075 295.2 180 
M 324 180 
z
" style="fill:#aa5555;"/>
   </g>
   <g id="patch_3">
    <path d="M 180 36 
C 180 36 180 36 180 36 
L 180 64.8 
C 180 64.8 180 64.8 180 64.8 
L 180 36 
z
" style="fill:#55aa55;"/>
   </g>
  </g>
 </g>
</svg>
