<?xml version="1.0" encoding="utf-8" standalone="no"?>
<!DOCTYPE svg PUBLIC "-//W3C//DTD SVG 1.1//EN"
  "http://www.w3.org/Graphics/SVG/1.1/DTD/svg11.dtd">
<!-- Created with matplotlib (https://matplotlib.org/) -->
<svg height="360pt" version="1.1" viewBox="0 0 360 360" width="360pt" xmlns="http://www.w3.org/2000/svg" xmlns:xlink="http://www.w3.org/1999/xlink">
 <metadata>
  <rdf:RDF xmlns:cc="http://creativecommons.org/ns#" xmlns:dc="http://purl.org/dc/elements/1.1/" xmlns:rdf="http://www.w3.org/1999/02/22-rdf-syntax-ns#">
   <cc:Work>
    <dc:type rdf:resource="http://purl.org/dc/dcmitype/StillImage"/>
    <dc:date>2021-05-20T17:19:19.900495</dc:date>
    <dc:format>image/svg+xml</dc:format>
    <dc:creator>
     <cc:Agent>
      <dc:title>Matplotlib v3.3.2, https://matplotlib.org/</dc:title>
     </cc:Agent>
    </dc:creator>
   </cc:Work>
  </rdf:RDF>
 </metadata>
 <defs>
  <style type="text/css">*{stroke-linecap:butt;stroke-linejoin:round;}</style>
 </defs>
 <g id="figure_1">
  <g id="patch_1">
   <path d="M 0 360 
L 360 360 
L 360 0 
L 0 0 
z
" style="fill:none;"/>
  </g>
  <g id="axes_1">
   <g id="patch_2">
    <path d="M 180 36 
C 157.276409 36 134.872234 41.378767 114.625366 51.695062 
C 94.378498 62.011357 76.858141 76.975156 63.50155 95.358928 
C 50.144958 113.7427 41.327629 135.029619 37.772878 157.473445 
C 34.218126 179.917272 36.025887 202.887038 43.047865 224.498457 
L 70.438292 215.598766 
C 64.82071 198.309631 63.374501 179.933817 66.218302 161.978756 
C 69.062103 144.023695 76.115967 126.99416 86.80124 112.287142 
C 97.486513 97.580125 111.502798 85.609085 127.700293 77.356049 
C 143.897787 69.103013 161.821127 64.8 180 64.8 
L 180 36 
z
" style="fill:#aa5555;"/>
   </g>
   <g id="patch_3">
    <path d="M 43.047865 224.498457 
C 51.253631 249.753202 66.287355 272.252756 86.479488 289.498465 
C 106.671622 306.744174 131.245963 318.073099 157.473445 322.227122 
C 183.700927 326.381146 210.573344 323.200584 235.10642 313.03865 
C 259.639497 302.876716 280.89016 286.124042 296.49845 264.641072 
C 312.106741 243.158102 321.472662 217.770658 323.556096 191.298106 
C 325.639531 164.825553 320.360389 138.285519 308.304938 114.625366 
C 296.249488 90.965213 277.881149 71.094457 255.239792 57.219816 
C 232.598435 43.345174 206.554411 36 180 36 
L 180 64.8 
C 201.243529 64.8 222.078748 70.676139 240.191834 81.775853 
C 258.30492 92.875566 272.99959 108.77217 282.643951 127.700293 
C 292.288311 146.628415 296.511625 167.860443 294.844877 189.038485 
C 293.17813 210.216527 285.685392 230.526481 273.19876 247.712858 
C 260.712128 264.899234 243.711597 278.301373 224.085136 286.43092 
C 204.458675 294.560467 182.960742 297.104917 161.978756 293.781698 
C 140.99677 290.458479 121.337297 281.395339 105.183591 267.598772 
C 89.029884 253.802205 77.002905 235.802562 70.438292 215.598766 
L 43.047865 224.498457 
z
" style="fill:#55aa55;"/>
   </g>
  </g>
 </g>
</svg>
