<?xml version="1.0" encoding="utf-8" standalone="no"?>
<!DOCTYPE svg PUBLIC "-//W3C//DTD SVG 1.1//EN"
  "http://www.w3.org/Graphics/SVG/1.1/DTD/svg11.dtd">
<svg height="324pt" version="1.1" viewBox="0 0 576 324" width="576pt" xmlns="http://www.w3.org/2000/svg" xmlns:xlink="http://www.w3.org/1999/xlink">
 <metadata>
  <rdf:RDF xmlns:cc="http://creativecommons.org/ns#" xmlns:dc="http://purl.org/dc/elements/1.1/" xmlns:rdf="http://www.w3.org/1999/02/22-rdf-syntax-ns#">
   <cc:Work>
    <dc:type rdf:resource="http://purl.org/dc/dcmitype/StillImage"/>
    <dc:date>2021-08-16T00:32:40.063241</dc:date>
    <dc:format>image/svg+xml</dc:format>
    <dc:creator>
     <cc:Agent>
      <dc:title>Matplotlib v3.4.3, https://matplotlib.org/</dc:title>
     </cc:Agent>
    </dc:creator>
   </cc:Work>
  </rdf:RDF>
 </metadata>
 <defs>
  <style type="text/css">*{stroke-linecap:butt;stroke-linejoin:round;}</style>
 </defs>
 <g id="figure_1">
  <g id="patch_1">
   <path d="M 0 324 
L 576 324 
L 576 0 
L 0 0 
z
" style="fill:none;"/>
  </g>
  <g id="axes_1">
   <g id="patch_2">
    <path clip-path="url(#p4340a2d4c1)" d="M 0 162 
L 96 162 
L 96 162 
L 0 162 
z
" style="fill:#338833;"/>
   </g>
   <g id="patch_3">
    <path clip-path="url(#p4340a2d4c1)" d="M 120 162 
L 216 162 
L 216 162 
L 120 162 
z
" style="fill:#338833;"/>
   </g>
   <g id="patch_4">
    <path clip-path="url(#p4340a2d4c1)" d="M 240 162 
L 336 162 
L 336 162 
L 240 162 
z
" style="fill:#338833;"/>
   </g>
   <g id="patch_5">
    <path clip-path="url(#p4340a2d4c1)" d="M 360 162 
L 456 162 
L 456 162 
L 360 162 
z
" style="fill:#338833;"/>
   </g>
   <g id="patch_6">
    <path clip-path="url(#p4340a2d4c1)" d="M 480 162 
L 576 162 
L 576 162 
L 480 162 
z
" style="fill:#338833;"/>
   </g>
   <g id="text_1">
    <!-- 0 -->
    <g style="fill:#eeeeee;" transform="translate(40.046875 162)scale(0.25 -0.25)">
     <defs>
      <path d="M 2034 4250 
Q 1547 4250 1301 3770 
Q 1056 3291 1056 2328 
Q 1056 1369 1301 889 
Q 1547 409 2034 409 
Q 2525 409 2770 889 
Q 3016 1369 3016 2328 
Q 3016 3291 2770 3770 
Q 2525 4250 2034 4250 
z
M 2034 4750 
Q 2819 4750 3233 4129 
Q 3647 3509 3647 2328 
Q 3647 1150 3233 529 
Q 2819 -91 2034 -91 
Q 1250 -91 836 529 
Q 422 1150 422 2328 
Q 422 3509 836 4129 
Q 1250 4750 2034 4750 
z
" id="DejaVuSans-30" transform="scale(0.015625)"/>
     </defs>
     <use xlink:href="#DejaVuSans-30"/>
    </g>
   </g>
   <g id="text_2">
    <!-- 0 -->
    <g style="fill:#eeeeee;" transform="translate(160.046875 162)scale(0.25 -0.25)">
     <use xlink:href="#DejaVuSans-30"/>
    </g>
   </g>
   <g id="text_3">
    <!-- 0 -->
    <g style="fill:#eeeeee;" transform="translate(280.046875 162)scale(0.25 -0.25)">
     <use xlink:href="#DejaVuSans-30"/>
    </g>
   </g>
   <g id="text_4">
    <!-- 0 -->
    <g style="fill:#eeeeee;" transform="translate(400.046875 162)scale(0.25 -0.25)">
     <use xlink:href="#DejaVuSans-30"/>
    </g>
   </g>
   <g id="text_5">
    <!-- 0 -->
    <g style="fill:#eeeeee;" transform="translate(520.046875 162)scale(0.25 -0.25)">
     <use xlink:href="#DejaVuSans-30"/>
    </g>
   </g>
  </g>
 </g>
 <defs>
  <clipPath id="p4340a2d4c1">
   <rect height="324" width="576" x="0" y="0"/>
  </clipPath>
 </defs>
</svg>
