<svg id="Layer_1" enable-background="new 0 0 510.033 510.033" height="512" viewBox="0 0 510.033 510.033" width="512" xmlns="http://www.w3.org/2000/svg"><g><path id="XMLID_2237_" d="m289.732 220.284c-4.788 4.788-164.944 164.944-169.732 169.733 5.315 0 120.001 15 120.001 15s114.021-15 119.999-15c0-65.891-26.555-126.012-70.268-169.733z" fill="#b5dbff"/><path id="XMLID_2210_" d="m120 150.017c0 5.977-15 120-15 120s15 114.689 15 120l169.732-169.732c-43.403-43.411-103.382-70.268-169.732-70.268z" fill="#edf5ff"/><path id="XMLID_2238_" d="m454.394 34.41c-4.494 4.493-327.498 327.498-334.394 334.394l-8.229 29.441c24.179-24.178 207.896-197.561 207.896-197.561s120.453-130.788 145.333-155.667z" fill="#ff884d"/><path id="XMLID_575_" d="m0 .017v135c0 4.938 15 15 15 15s-15 9.951-15 15v30c0 4.623 15 13.934 15 13.934s-15 10.694-15 16.066v30c0 5.004 15 15 15 15s-15 10.014-15 15v30c0 5.035 15 15 15 15s-15 10.047-15 15v30c0 5.08 15 15 15 15s-15 10.102-15 15v105c2.263-2.263 75-60 75-60s43.729-58.729 45-60c0-16.947 0-371.193 0-390h-120z" fill="#ffe278"/><path id="XMLID_541_" d="m.017 75.017h75v30h-75z" fill="#ffb454"/><path id="XMLID_640_" d="m.017 135.017h60v30h-60z" fill="#ffb454"/><path id="XMLID_2206_" d="m.017 195.017h75v30h-75z" fill="#ffb454"/><path id="XMLID_2207_" d="m.017 255.017h60v30h-60z" fill="#ffb454"/><path id="XMLID_2208_" d="m.017 315.017v30h75v-30c-16 0-59 0-75 0z" fill="#ffb454"/><path id="XMLID_2209_" d="m.017 375.017v30h60v-30c-22 0-38 0-60 0z" fill="#ffb454"/><path id="XMLID_2236_" d="m465 45.017c-41.127 41.127-315.602 315.602-353.229 353.228l29.442-8.228c5.996-5.996 328.558-328.558 334.393-334.394-3.709-3.71-6.897-6.897-10.606-10.606z" fill="#ff4d4d"/><path id="XMLID_2235_" d="m120 390.017c-3.269 3.27-116.82 116.82-120 120h105c5.207 0 15-15 15-15s10.233 15 15 15h30c5.411 0 15-15 15-15s10.524 15 15 15h30c15.354 0 15-15 15-15s7.019 15 15 15h30c4.55 0 15-15 15-15s9.637 15 15 15h30c4.783 0 15-15 15-15s9.806 15 15 15h30c4.857 0 15-15 15-15s9.867 15 15 15h75.017c0-14.518 0-105.387 0-120-80 0-310.703 0-390.017 0z" fill="#ffb454"/><g fill="#ff884d"><path id="XMLID_2225_" d="m165.017 510.017h30c0-9.141 0-65.924 0-75h-30z"/><path id="XMLID_2245_" d="m405.017 435.017h30v75h-30z"/><path id="XMLID_2246_" d="m345.017 450.017h30v60h-30z"/><path id="XMLID_2247_" d="m285.017 435.017h30v75h-30z"/><path id="XMLID_2248_" d="m225.017 450.017h30v60h-30z"/><path id="XMLID_2249_" d="m105.017 450.017v60h30v-60c-8 0-23 0-30 0z"/></g><path id="XMLID_2221_" d="m265.863 39.112 16.916-16.916-21.213-21.213-50.176 50.177 49.574 55.745 22.418-19.938-15.216-17.109c43.536 7.506 82.857 28.377 113.337 58.655l23.497-8.496-2.206-12.794c-36.838-36.629-84.259-60.787-136.931-68.111z" fill="#3b6bab"/><path id="XMLID_2219_" d="m488.82 228.237c-5.917 5.916-11.001 10.999-16.917 16.916-7.103-51.092-30.441-99.488-69.109-137.931-7.446 7.446-13.845 13.845-21.291 21.291 31.171 30.966 52.155 70.837 59.654 114.337-5.984-5.322-11.125-9.895-17.109-15.216-6.973 7.841-12.963 14.577-19.936 22.418 6.284 5.589 49.122 43.685 55.744 49.573 6.072-6.072 44.064-44.064 50.177-50.176-7.419-7.418-13.794-13.793-21.213-21.212z" fill="#00467d"/></g></svg>