<svg id="Capa_1" enable-background="new 0 0 512 512" height="512" viewBox="0 50 512 512" width="512" xmlns="http://www.w3.org/2000/svg">
    <g><path d="m142.515 368.529c-1.594-4.48-5.835-7.471-10.59-7.471h-93.375c-4.755 0-8.995 2.992-10.59 7.471l-27.3 76.699c-2.605 7.318 2.822 15.01 10.59 15.01h147.975c7.768 0 13.195-7.692 10.59-15.01z" fill="#bbb"/><path d="m313.277 368.529c-1.594-4.48-5.835-7.471-10.59-7.471h-93.375c-4.755 0-8.995 2.992-10.59 7.471l-27.3 76.699c-2.605 7.318 2.822 15.01 10.59 15.01h147.975c7.768 0 13.195-7.692 10.59-15.01z" fill="#bbb"/><path d="m484.04 368.529c-1.594-4.48-5.835-7.471-10.59-7.471h-93.375c-4.755 0-8.995 2.992-10.59 7.471l-27.3 76.699c-2.605 7.318 2.822 15.01 10.59 15.01h147.975c7.768 0 13.195-7.692 10.59-15.01z" fill="#bbb"/><path d="m159.226 460.235h-24.724c7.767 0 13.196-7.685 10.59-15.01l-27.3-76.696c-1.597-4.481-5.841-7.469-10.59-7.469h24.724c4.749 0 8.993 2.988 10.59 7.469l27.3 76.696c2.606 7.324-2.823 15.01-10.59 15.01z" fill="#888"/><path d="m329.987 460.235h-24.724c7.767 0 13.196-7.685 10.59-15.01l-27.3-76.696c-1.597-4.481-5.831-7.469-10.59-7.469h24.724c4.759 0 8.993 2.988 10.59 7.469l27.3 76.696c2.606 7.324-2.823 15.01-10.59 15.01z" fill="#888"/><path d="m500.748 460.235h-24.724c7.767 0 13.196-7.685 10.59-15.01l-27.3-76.696c-1.597-4.481-5.831-7.469-10.59-7.469h24.724c4.759 0 8.993 2.988 10.59 7.469l27.3 76.696c2.606 7.324-2.823 15.01-10.59 15.01z" fill="#888"/><path d="m312.765 172.008c-1.594-4.48-5.835-7.471-10.59-7.471h-93.375c-4.755 0-8.995 2.992-10.59 7.471l-27.3 76.699c-2.605 7.318 2.822 15.01 10.59 15.01h147.975c7.768 0 13.195-7.691 10.59-15.01z" fill="#bbb"/><path d="m329.472 263.717h-24.724c7.767 0 13.197-7.695 10.59-15.01l-27.299-76.696c-1.597-4.481-5.831-7.479-10.59-7.479h24.724c4.759 0 8.993 2.998 10.59 7.479l27.3 76.696c2.605 7.314-2.824 15.01-10.591 15.01z" fill="#888"/><g fill="#aaa"><path d="m227.384 270.02c-1.594-4.48-5.835-7.471-10.59-7.471h-93.375c-4.755 0-8.995 2.992-10.59 7.471l-27.3 76.699c-2.605 7.318 2.822 15.01 10.59 15.01h147.975c7.768 0 13.195-7.691 10.59-15.01z"/><path d="m398.146 270.02c-1.594-4.48-5.835-7.471-10.59-7.471h-93.375c-4.755 0-8.995 2.992-10.59 7.471l-27.3 76.699c-2.605 7.318 2.822 15.01 10.59 15.01h147.975c7.768 0 13.195-7.691 10.59-15.01z"/></g><path d="m244.091 361.734h-24.724c7.767 0 13.196-7.695 10.59-15.02l-27.3-76.696c-1.597-4.481-5.831-7.469-10.59-7.469h24.724c4.759 0 8.993 2.988 10.59 7.469l27.3 76.696c2.607 7.324-2.822 15.02-10.59 15.02z" fill="#888"/><path d="m414.852 361.734h-24.724c7.767 0 13.197-7.695 10.59-15.02l-27.299-76.696c-1.586-4.481-5.831-7.469-10.59-7.469h24.724c4.759 0 9.004 2.988 10.59 7.469l27.3 76.696c2.606 7.324-2.823 15.02-10.591 15.02z" fill="#888"/></g></svg>