<svg height="384pt" viewBox="0 0 384 384" width="384pt" xmlns="http://www.w3.org/2000/svg"><g fill="#007aff"><path fill="#C55" d="m176 0v73.367188l-32-32-22.632812 22.632812 70.632812 70.632812 70.632812-70.632812-22.632812-22.632812-32 32v-73.367188zm0 0"/><path fill="#C55" d="m41.367188 240 22.632812 22.625 70.632812-70.625-70.632812-70.632812-22.632812 22.632812 32 32h-73.367188v32h73.367188zm0 0"/><path fill="#C55" d="m121.367188 320 22.632812 22.625 32-32v73.375h32v-73.375l32 32 22.632812-22.625-70.632812-70.625zm0 0"/><path fill="#C55" d="m342.632812 144-22.632812-22.632812-70.632812 70.632812 70.632812 70.625 22.632812-22.625-32-32h73.367188v-32h-73.367188zm0 0"/><path fill="#FAA" d="m176 176h32v32h-32zm0 0"/></g></svg>