<?xml version="1.0" encoding="iso-8859-1"?>
<!-- Generator: Adobe Illustrator 19.0.0, SVG Export Plug-In . SVG Version: 6.00 Build 0)  -->
<svg version="1.1" id="Capa_1" xmlns="http://www.w3.org/2000/svg" xmlns:xlink="http://www.w3.org/1999/xlink" x="0px" y="0px"
	 viewBox="0 0 512 512" style="enable-background:new 0 0 512 512;" xml:space="preserve">
<path style="fill:#FFDB70;" d="M378.784,83.296H135.776c-20,20-31.2,31.2-51.2,51.2v243.008c20,20,31.2,31.2,51.2,51.2h243.008
	c20-20,31.2-31.2,51.2-51.2V134.496C409.984,114.496,398.768,103.296,378.784,83.296z"/>
<polygon style="fill:#FDBC4B;" points="149.92,394.56 118.72,363.36 118.72,148.624 149.92,117.424 364.64,117.424 395.84,148.624 
	395.84,363.36 364.64,394.56 "/>
<path style="fill:#FCB440;" d="M395.84,148.624l-31.216-31.2H262.56c-11.456,0-20.752,9.296-20.752,20.752
	s9.296,20.752,20.752,20.752h27.744c9.6,0,17.408,7.856,17.36,17.44v0.224c0,0.432,0.016,0.848,0.032,1.264
	c0.576,9.456-6.928,17.424-16.4,17.424h-66.288c-11.232,0-21.312,8.416-21.888,19.632c-0.624,11.968,8.896,21.856,20.72,21.856
	h40.896c9.648,0,17.456,7.856,17.392,17.488v1.2v0.24c0.064,10.144-8.192,18.448-18.336,18.448h-4.224
	c-11.232,0-21.312,8.416-21.888,19.632c-0.624,11.968,8.896,21.856,20.72,21.856h42.56c10.032,0,17.504,8.416,17.392,18.448
	c0,0.08,0,0.16,0,0.256c0,0.08,0,0.16,0,0.24c0.112,10.032-7.36,18.448-17.392,18.448h-17.152c-11.232,0-21.312,8.416-21.888,19.632
	c-0.624,11.968,8.896,21.856,20.72,21.856h82.016l31.216-31.2V148.624H395.84z"/>
<g>
	<rect x="147.888" style="fill:#DDD;" width="26.144" height="83.296"/>
	<rect x="211.248" style="fill:#DDD;" width="26.144" height="83.296"/>
	<rect x="274.56" style="fill:#DDD;" width="26.144" height="83.296"/>
	<rect x="337.92" style="fill:#DDD;" width="26.144" height="83.296"/>
	<rect x="147.888" y="428.704" style="fill:#DDD;" width="26.144" height="83.296"/>
	<rect x="211.248" y="428.704" style="fill:#DDD;" width="26.144" height="83.296"/>
	<rect x="274.56" y="428.704" style="fill:#DDD;" width="26.144" height="83.296"/>
	<rect x="337.92" y="428.704" style="fill:#DDD;" width="26.144" height="83.296"/>
	<rect x="428.704" y="147.888" style="fill:#DDD;" width="83.296" height="26.144"/>
	<rect x="428.704" y="211.248" style="fill:#DDD;" width="83.296" height="26.144"/>
	<rect x="428.704" y="274.56" style="fill:#DDD;" width="83.296" height="26.144"/>
	<rect x="428.704" y="337.92" style="fill:#DDD;" width="83.296" height="26.144"/>
	<rect y="147.888" style="fill:#DDD;" width="83.296" height="26.144"/>
	<rect y="211.248" style="fill:#DDD;" width="83.296" height="26.144"/>
	<rect y="274.56" style="fill:#DDD;" width="83.296" height="26.144"/>
	<rect y="337.92" style="fill:#DDD;" width="83.296" height="26.144"/>
</g>
<g style="opacity:0.3;">
	<path style="fill:#FFFFFF;" d="M139.648,212.128v60.496c0,7.568,6.128,13.696,13.696,13.696s13.696-6.128,13.696-13.696v-60.496
		c0-7.568-6.128-13.696-13.696-13.696S139.648,204.56,139.648,212.128z"/>
	<path style="fill:#FFFFFF;" d="M139.648,176.016v1.712c0,7.568,6.128,13.696,13.696,13.696s13.696-6.128,13.696-13.696v-1.712
		c0-7.568-6.128-13.696-13.696-13.696S139.648,168.448,139.648,176.016z"/>
</g>
<g>
</g>
<g>
</g>
<g>
</g>
<g>
</g>
<g>
</g>
<g>
</g>
<g>
</g>
<g>
</g>
<g>
</g>
<g>
</g>
<g>
</g>
<g>
</g>
<g>
</g>
<g>
</g>
<g>
</g>
</svg>
