<?xml version="1.0" encoding="iso-8859-1"?>
<!-- Generator: Adobe Illustrator 19.0.0, SVG Export Plug-In . SVG Version: 6.00 Build 0)  -->
<svg version="1.1" id="Capa_1" xmlns="http://www.w3.org/2000/svg" xmlns:xlink="http://www.w3.org/1999/xlink" x="0px" y="0px"
	 viewBox="-200 -200 900 900" style="enable-background:new 0 0 512 512;" xml:space="preserve">
<polygon style="fill:#FABE3D;" points="452.716,133.459 452.716,60.213 234.375,60.213 202.324,0 0,0 0,364.253 30.048,364.253 "/>
<polygon style="fill:#FCA741;" points="256.074,60.213 256.074,240.833 452.716,133.459 452.716,60.213 "/>
<polygon style="fill:#FDDA50;" points="95.176,118.407 0,364.253 449.363,364.253 512,118.407 "/>
<polygon style="fill:#FABE3D;" points="256.074,118.407 256.074,364.253 449.363,364.253 512,118.407 "/>
<polygon style="fill:#1CF96B;" points="311.479,395.287 311.479,241.229 200.636,241.229 200.636,395.287 158.463,395.287
	256.058,512 353.651,395.287 "/>
<polygon style="fill:#10E050;" points="256.074,241.229 256.058,512 353.651,395.287 311.479,395.287 311.479,241.229 "/>
<g>
</g>
<g>
</g>
<g>
</g>
<g>
</g>
<g>
</g>
<g>
</g>
<g>
</g>
<g>
</g>
<g>
</g>
<g>
</g>
<g>
</g>
<g>
</g>
<g>
</g>
<g>
</g>
<g>
</g>
</svg>
