<svg width="800" height="600" xmlns="http://www.w3.org/2000/svg">
 <!-- Created with Method Draw - http://github.com/duopixel/Method-Draw/ -->

 <g>
  <title>background</title>
  <rect fill="none" id="canvas_background" height="602" width="802" y="-1" x="-1"/>
 </g>
 <g>
  <title>Layer 1</title>
  <ellipse fill="#EEE" stroke="#EEE" stroke-width="0" cx="297.5" cy="273.5" id="svg_1" rx="8.5" ry="8"/>
  <ellipse fill="#EEE" stroke="#EEE" stroke-width="0" cx="242.5" cy="394.5" id="svg_2" rx="8.5" ry="8"/>
  <ellipse fill="#EEE" stroke="#EEE" stroke-width="0" cx="360.5" cy="355.5" id="svg_3" rx="8.5" ry="8"/>
  <ellipse fill="#EEE" stroke="#EEE" stroke-width="0" cx="372.5" cy="383.5" id="svg_4" rx="8.5" ry="8"/>
  <ellipse fill="#EEE" stroke="#EEE" stroke-width="0" cx="269.5" cy="284.5" id="svg_5" rx="8.5" ry="8"/>
  <ellipse fill="#EEE" stroke="#EEE" stroke-width="0" cx="324.5" cy="266.5" id="svg_6" rx="8.5" ry="8"/>
  <ellipse fill="#EEE" stroke="#EEE" stroke-width="0" cx="363.5" cy="163.5" id="svg_7" rx="8.5" ry="8"/>
  <ellipse fill="#EEE" stroke="#EEE" stroke-width="0" cx="208.5" cy="162.5" id="svg_8" rx="8.5" ry="8"/>
  <ellipse fill="#EEE" stroke="#EEE" stroke-width="0" cx="310.5" cy="92.5" id="svg_9" rx="8.5" ry="8"/>
  <ellipse fill="#EEE" stroke="#EEE" stroke-width="0" cx="315.5" cy="119.5" id="svg_10" rx="8.5" ry="8"/>
  <ellipse fill="#EEE" stroke="#EEE" stroke-width="0" cx="466.5" cy="159.5" id="svg_11" rx="8.5" ry="8"/>
  <ellipse fill="#EEE" stroke="#EEE" stroke-width="0" cx="462.5" cy="121.5" id="svg_12" rx="8.5" ry="8"/>
  <ellipse fill="#EEE" stroke="#EEE" stroke-width="0" cx="444.5" cy="92.5" id="svg_13" rx="8.5" ry="8"/>
  <ellipse fill="#EEE" stroke="#EEE" stroke-width="0" cx="458.5" cy="182.5" id="svg_14" rx="8.5" ry="8"/>
  <ellipse fill="#EEE" stroke="#EEE" stroke-width="0" cx="448.5" cy="239.5" id="svg_15" rx="8.5" ry="8"/>
  <ellipse fill="#EEE" stroke="#EEE" stroke-width="0" cx="430.5" cy="252.5" id="svg_16" rx="8.5" ry="8"/>
  <ellipse fill="#EEE" stroke="#EEE" stroke-width="0" cx="181.5" cy="121.5" id="svg_17" rx="8.5" ry="8"/>
  <ellipse fill="#EEE" stroke="#EEE" stroke-width="0" cx="135.5" cy="56.5" id="svg_18" rx="8.5" ry="8"/>
  <ellipse fill="#EEE" stroke="#EEE" stroke-width="0" cx="146.5" cy="6.5" id="svg_19" rx="8.5" ry="8"/>
  <ellipse fill="#EEE" stroke="#EEE" stroke-width="0" cx="168.5" cy="62.5" id="svg_20" rx="8.5" ry="8"/>
  <ellipse fill="#EEE" stroke="#EEE" stroke-width="0" cx="205.5" cy="6.5" id="svg_21" rx="8.5" ry="8"/>
  <line fill="none" stroke="#EEE" stroke-opacity="null" x1="374" y1="380" x2="363" y2="358" id="svg_22" stroke-linejoin="null" stroke-linecap="null" stroke-width="2"/>
  <line fill="none" stroke="#EEE" stroke-width="2" stroke-opacity="null" x1="241" y1="393" x2="270" y2="282" id="svg_23" stroke-linejoin="null" stroke-linecap="null"/>
  <line fill="none" stroke="#EEE" stroke-width="2" stroke-opacity="null" x1="325" y1="265" x2="274" y2="284" id="svg_24" stroke-linejoin="null" stroke-linecap="null"/>
  <line fill="none" stroke="#EEE" stroke-width="2" stroke-opacity="null" x1="358" y1="356" x2="325" y2="266" id="svg_25" stroke-linejoin="null" stroke-linecap="null"/>
  <line fill="none" stroke="#EEE" stroke-width="2" stroke-opacity="null" x1="329" y1="267" x2="365" y2="166" id="svg_26" stroke-linejoin="null" stroke-linecap="null"/>
  <line fill="none" stroke="#EEE" stroke-width="2" stroke-opacity="null" x1="432" y1="253" x2="451" y2="239" id="svg_27" stroke-linejoin="null" stroke-linecap="null"/>
  <line fill="none" stroke="#EEE" stroke-width="2" stroke-opacity="null" x1="460" y1="186" x2="452" y2="246" id="svg_28" stroke-linejoin="null" stroke-linecap="null"/>
  <line fill="none" stroke="#EEE" stroke-width="2" stroke-opacity="null" x1="468" y1="160" x2="458" y2="183" id="svg_29" stroke-linejoin="null" stroke-linecap="null"/>
  <line fill="none" stroke="#EEE" stroke-width="2" stroke-opacity="null" x1="464" y1="122" x2="469" y2="163" id="svg_30" stroke-linejoin="null" stroke-linecap="null"/>
  <line fill="none" stroke="#EEE" stroke-width="2" stroke-opacity="null" x1="441" y1="91" x2="460" y2="120" id="svg_31" stroke-linejoin="null" stroke-linecap="null"/>
  <line fill="none" stroke="#EEE" stroke-width="2" stroke-opacity="null" x1="207" y1="5" x2="171" y2="60" id="svg_32" stroke-linejoin="null" stroke-linecap="null"/>
  <line fill="none" stroke="#EEE" stroke-width="2" stroke-opacity="null" x1="148" y1="7" x2="132" y2="55" id="svg_33" stroke-linejoin="null" stroke-linecap="null"/>
  <line fill="none" stroke="#EEE" stroke-width="2" stroke-opacity="null" x1="175" y1="67" x2="135" y2="58" id="svg_34" stroke-linejoin="null" stroke-linecap="null"/>
  <line fill="none" stroke="#EEE" stroke-width="2" stroke-opacity="null" x1="180" y1="125" x2="165" y2="63" id="svg_35" stroke-linejoin="null" stroke-linecap="null"/>
  <line fill="none" stroke="#EEE" stroke-width="2" stroke-opacity="null" x1="207" y1="164" x2="184" y2="126" id="svg_36" stroke-linejoin="null" stroke-linecap="null"/>
  <line fill="none" stroke="#EEE" stroke-width="2" stroke-opacity="null" x1="269" y1="284" x2="209" y2="159" id="svg_37" stroke-linejoin="null" stroke-linecap="null"/>
  <line fill="none" stroke="#EEE" stroke-width="2" stroke-opacity="null" x1="309" y1="94" x2="207" y2="160" id="svg_38" stroke-linejoin="null" stroke-linecap="null"/>
  <line fill="none" stroke="#EEE" stroke-width="2" stroke-opacity="null" x1="319" y1="123" x2="310" y2="93" id="svg_39" stroke-linejoin="null" stroke-linecap="null"/>
  <line fill="none" stroke="#EEE" stroke-width="2" stroke-opacity="null" x1="360" y1="167" x2="316" y2="119" id="svg_40" stroke-linejoin="null" stroke-linecap="null"/>
  <line fill="none" stroke="#EEE" stroke-width="2" stroke-opacity="null" x1="467" y1="157" x2="363" y2="164" id="svg_41" stroke-linejoin="null" stroke-linecap="null"/>
  <ellipse stroke="#EEE" fill="#EEE" stroke-width="0" cx="111.5" cy="236.5" id="svg_43" rx="8.5" ry="8"/>
  <ellipse fill="#EEE" stroke="#EEE" stroke-width="0" cx="50.5" cy="151.5" id="svg_44" rx="8.5" ry="8"/>
  <line stroke-linecap="null" stroke-linejoin="null" id="svg_45" y2="233.5" x2="112" y1="158.5" x1="52" fill-opacity="null" stroke-opacity="null" stroke="#EEE" fill="none"/>
  <ellipse stroke="#EEE" fill="#EEE" stroke-width="0" cx="642.5" cy="150.5" id="svg_49" rx="8.5" ry="8"/>
  <ellipse stroke="#EEE" fill="#EEE" stroke-width="0" cx="534.5" cy="216.5" id="svg_50" rx="8.5" ry="8"/>
  <ellipse stroke="#EEE" fill="#EEE" stroke-width="0" cx="621.5" cy="400.5" id="svg_51" rx="8.5" ry="8"/>
  <line stroke-linecap="null" stroke-linejoin="null" id="svg_52" y2="214.5" x2="532" y1="149.5" x1="645" fill-opacity="null" stroke-opacity="null" stroke="#EEE" fill="none"/>
  <line stroke-linecap="null" stroke-linejoin="null" id="svg_53" y2="298.5" x2="652" y1="299.5" x1="652" fill-opacity="null" stroke-opacity="null" stroke="#EEE" fill="none"/>
  <line stroke-linecap="null" stroke-linejoin="null" id="svg_54" y2="219.5" x2="535" y1="404.5" x1="619" fill-opacity="null" stroke-opacity="null" stroke="#EEE" fill="none"/>
 </g>
</svg>