<?xml version="1.0" encoding="iso-8859-1"?>
<!-- Generator: Adobe Illustrator 19.0.0, SVG Export Plug-In . SVG Version: 6.00 Build 0)  -->
<svg version="1.1" id="Capa_1" xmlns="http://www.w3.org/2000/svg" xmlns:xlink="http://www.w3.org/1999/xlink" x="0px" y="0px"
	 viewBox="0 0 512 512" style="enable-background:new 0 0 512 512;" xml:space="preserve">
<g>
	<path style="fill:#303C42;" d="M384,0c-71.771,0-128,56.229-128,128c0,80.688,82.826,172.056,111.227,201.03l-6.893,4.595
		c-4.906,3.271-6.229,9.885-2.958,14.792c2.052,3.083,5.438,4.75,8.885,4.75c2.031,0,4.083-0.583,5.906-1.792l17.75-11.833
		c0.258-0.172,0.391-0.44,0.629-0.63c0.246-0.195,0.546-0.275,0.777-0.495C396.25,333.76,512,223.26,512,128
		C512,56.229,455.771,0,384,0z"/>
	<path style="fill:#303C42;" d="M202.833,438.625l-12.044,8.03C222.513,405.439,256,349.915,256,298.667
		c0-71.771-56.229-128-128-128s-128,56.229-128,128c0,95.26,115.75,205.76,120.677,210.417c2.052,1.948,4.688,2.917,7.323,2.917
		c2.042,0,4.001-0.763,5.772-1.931c0.055-0.013,0.086,0.178,0.145,0.139l17.75-11.833c3.632-2.421,5.27-6.674,4.565-10.711
		c3.682-3.987,7.785-8.603,12.043-13.491c0.048,0.077,0.049,0.167,0.1,0.243c2.052,3.083,5.438,4.75,8.885,4.75
		c2.031,0,4.083-0.583,5.906-1.792l31.5-21c4.906-3.271,6.229-9.885,2.958-14.792C214.365,436.677,207.729,435.354,202.833,438.625z
		"/>
	<path style="fill:#303C42;" d="M265.833,396.625l-31.5,21c-4.906,3.271-6.229,9.885-2.958,14.792
		c2.052,3.083,5.438,4.75,8.885,4.75c2.031,0,4.083-0.583,5.906-1.792l31.5-21c4.906-3.271,6.229-9.885,2.958-14.792
		C277.365,394.677,270.719,393.344,265.833,396.625z"/>
	<path style="fill:#303C42;" d="M328.833,354.625l-31.5,21c-4.906,3.271-6.229,9.885-2.958,14.792
		c2.052,3.083,5.438,4.75,8.885,4.75c2.031,0,4.083-0.583,5.906-1.792l31.5-21c4.906-3.271,6.229-9.885,2.958-14.792
		C340.365,352.667,333.75,351.365,328.833,354.625z"/>
</g>
<path style="fill:#EF5350;" d="M128,486.292c-25.198-25.708-106.667-114.5-106.667-187.625C21.333,238.854,68.188,192,128,192
	s106.667,46.854,106.667,106.667C234.667,371.792,153.198,460.583,128,486.292z"/>
<circle style="fill:#303C42;" cx="128" cy="298.667" r="64"/>
<path style="fill:#EF5350;" d="M384,315.625C358.802,289.917,277.333,201.125,277.333,128c0-59.813,46.854-106.667,106.667-106.667
	S490.667,68.188,490.667,128C490.667,201.125,409.198,289.917,384,315.625z"/>
<circle style="fill:#303C42;" cx="384" cy="128" r="64"/>
<circle style="fill:#FFFFFF;" cx="128" cy="298.667" r="42.667"/>
<path style="opacity:0.1;enable-background:new    ;" d="M106.667,320c0-23.531,19.135-42.667,42.667-42.667
	c6.246,0,12.137,1.424,17.488,3.845C160.121,266.371,145.285,256,128,256c-23.531,0-42.667,19.135-42.667,42.667
	c0,17.285,10.371,32.121,25.178,38.822C108.091,332.137,106.667,326.246,106.667,320z"/>
<circle style="fill:#FFFFFF;" cx="384" cy="128" r="42.667"/>
<path style="opacity:0.1;enable-background:new    ;" d="M362.667,149.333c0-23.531,19.135-42.667,42.667-42.667
	c6.246,0,12.137,1.424,17.488,3.845C416.121,95.704,401.285,85.333,384,85.333c-23.531,0-42.667,19.135-42.667,42.667
	c0,17.285,10.371,32.121,25.178,38.822C364.091,161.47,362.667,155.579,362.667,149.333z"/>
<linearGradient id="SVGID_1_" gradientUnits="userSpaceOnUse" x1="-44.2071" y1="639.2104" x2="-26.4308" y2="630.9213" gradientTransform="matrix(21.3333 0 0 -21.3333 996.3334 13791.667)">
	<stop  offset="0" style="stop-color:#FFFFFF;stop-opacity:0.2"/>
	<stop  offset="1" style="stop-color:#FFFFFF;stop-opacity:0"/>
</linearGradient>
<path style="fill:url(#SVGID_1_);" d="M384,0c-71.771,0-128,56.229-128,128c0,80.688,82.826,172.056,111.227,201.03l-6.893,4.595
	c-4.906,3.271-6.229,9.885-2.958,14.792c2.052,3.083,5.438,4.75,8.885,4.75c2.031,0,4.083-0.583,5.906-1.792l17.75-11.833
	c0.258-0.172,0.391-0.44,0.629-0.63c0.246-0.195,0.546-0.275,0.777-0.495C396.25,333.76,512,223.26,512,128
	C512,56.229,455.771,0,384,0z M202.833,438.625l-12.044,8.03C222.513,405.439,256,349.915,256,298.667c0-71.771-56.229-128-128-128
	s-128,56.229-128,128c0,95.26,115.75,205.76,120.677,210.417c2.052,1.948,4.688,2.917,7.323,2.917c2.042,0,4.001-0.763,5.772-1.931
	c0.055-0.013,0.086,0.178,0.145,0.139l17.75-11.833c3.632-2.421,5.27-6.674,4.565-10.711c3.682-3.987,7.785-8.603,12.043-13.491
	c0.048,0.077,0.049,0.167,0.1,0.243c2.052,3.083,5.438,4.75,8.885,4.75c2.031,0,4.083-0.583,5.906-1.792l31.5-21
	c4.906-3.271,6.229-9.885,2.958-14.792C214.365,436.677,207.729,435.354,202.833,438.625z M265.833,396.625l-31.5,21
	c-4.906,3.271-6.229,9.885-2.958,14.792c2.052,3.083,5.438,4.75,8.885,4.75c2.031,0,4.083-0.583,5.906-1.792l31.5-21
	c4.906-3.271,6.229-9.885,2.958-14.792C277.365,394.677,270.719,393.344,265.833,396.625z M328.833,354.625l-31.5,21
	c-4.906,3.271-6.229,9.885-2.958,14.792c2.052,3.083,5.438,4.75,8.885,4.75c2.031,0,4.083-0.583,5.906-1.792l31.5-21
	c4.906-3.271,6.229-9.885,2.958-14.792C340.365,352.667,333.75,351.365,328.833,354.625z"/>
<g>
</g>
<g>
</g>
<g>
</g>
<g>
</g>
<g>
</g>
<g>
</g>
<g>
</g>
<g>
</g>
<g>
</g>
<g>
</g>
<g>
</g>
<g>
</g>
<g>
</g>
<g>
</g>
<g>
</g>
</svg>
