<svg height="512" viewBox="0 0 192 192" width="512" xmlns="http://www.w3.org/2000/svg" xmlns:xlink="http://www.w3.org/1999/xlink"><linearGradient id="New_Gradient_Swatch_1" gradientUnits="userSpaceOnUse" x1="56.42" x2="135.58" y1="147.58" y2="68.42"><stop offset="0" stop-color="#994253"/><stop offset="1" stop-color="#ffdc68"/></linearGradient><path d="m28.033 191.483a15.16 15.16 0 0 1 -11.233-4.283c-7.758-7.757-5.007-21.965 8.412-43.435 11-17.593 28.1-38.329 48.156-58.388s40.8-37.16 58.388-48.156c21.47-13.42 35.678-16.172 43.436-8.411 7.758 7.757 5.007 21.965-8.412 43.435-11 17.593-28.1 38.329-48.156 58.388s-40.795 37.16-58.388 48.156c-13.563 8.475-24.23 12.694-32.203 12.694zm135.48-151c-3.076.108-11.446 2.431-26.977 12.677-15.783 10.413-34.2 25.869-51.849 43.523s-33.11 36.066-43.523 51.849c-10.246 15.531-12.569 23.9-12.677 26.977 3.075-.108 11.446-2.431 26.977-12.677 15.783-10.413 34.2-25.869 51.849-43.523s33.11-36.066 43.523-51.849c10.246-15.527 12.569-23.897 12.677-26.973z" fill="#fff2c6"/><circle opacity="1" cx="96" cy="108" fill="url(#New_Gradient_Swatch_1)" r="56"/><path opacity="0.5" d="m28.033 191.483a15.16 15.16 0 0 1 -11.233-4.283l11.314-11.312a1.88 1.88 0 0 0 -.68-.457c1.726.51 10.108-.77 28.026-12.59 15.783-10.413 34.2-25.869 51.849-43.523s33.11-36.066 43.523-51.849c11.82-17.917 13.1-26.3 12.59-28.026a1.88 1.88 0 0 0 .457.68l11.321-11.323c7.759 7.758 5.008 21.966-8.411 43.436-11 17.593-28.1 38.329-48.156 58.388s-40.795 37.16-58.388 48.156c-13.572 8.484-24.239 12.703-32.212 12.703z" fill="#fff2c6"/></svg>