<svg id="Capa_1" enable-background="new 0 0 512 512" height="512" viewBox="0 0 512 512" width="512" xmlns="http://www.w3.org/2000/svg"><g><g><g><g><path d="m241.04 76.279h17.814v93.631h-17.814z" fill="#17799c"/></g></g><g><g><g><path d="m212.42 169.91h-30.003v-44.978l-60.568-35.732 15.245-25.841 75.326 44.439z" fill="#17799c"/></g></g><g><g><path d="m329.47 169.91h-30.002v-62.12l75.447-44.437 15.226 25.852-60.671 35.734z" fill="#0b495d"/></g></g></g><g><g><path d="m240.777 341.161h17.814v94.56h-17.814z" fill="#17799c"/></g></g><g><g><path d="m256 76.279h15.223v93.631h-15.223z" fill="#0b495d"/></g></g><g><g><path d="m256 341.161h15.004v94.56h-15.004z" fill="#0b495d"/></g></g><g><g><g><path d="m374.915 448.647-75.447-44.437v-63.242h30.002v46.093l60.671 35.734z" fill="#0b495d"/></g></g><g><g><path d="m137.094 448.641-15.245-25.841 60.568-35.732v-45.907h30.003v63.041z" fill="#17799c"/></g></g></g><g><g><path d="m341.626 241.221h94.095v30.002h-94.095z" fill="#0b495d"/></g></g><g><g><g><path d="m404.194 212.299h-62.568v-30.002h45.449l35.732-60.457 25.828 15.265z" fill="#0b495d"/></g></g><g><g><path d="m422.789 390.131-35.736-60.776h-45.427v-30.003h62.59l44.436 75.572z" fill="#0b495d"/></g></g></g><g><g><path d="m76.279 240.777h94.095v30.002h-94.095z" fill="#17799c"/></g></g><g><g><g><path d="m89.211 390.131-25.863-15.207 44.436-75.572h62.59v30.003h-45.427z" fill="#17799c"/></g></g><g><g><path d="m170.374 212.299h-62.568l-44.441-75.194 25.828-15.265 35.732 60.457h45.449z" fill="#17799c"/></g></g></g><g><path d="m258.591 356.162h-103.218v-201.253h103.218z" fill="#92ca32"/></g></g><g><g><path d="m256 89.598c-24.669 0-44.74-20.097-44.74-44.799s20.071-44.799 44.74-44.799c24.67 0 24.67 89.598 0 89.598z" fill="#7be2f6"/></g><g><path d="m256 0v89.598c24.67 0 44.74-20.097 44.74-44.799s-20.07-44.799-44.74-44.799z" fill="#55d0f9"/></g></g><ellipse cx="127.519" cy="467.201" fill="#7be2f6" rx="44.74" ry="44.799"/><g><ellipse cx="127.519" cy="44.799" fill="#7be2f6" rx="44.74" ry="44.799"/><ellipse cx="44.74" cy="126.953" fill="#7be2f6" rx="44.74" ry="44.799"/><ellipse cx="44.74" cy="386.267" fill="#7be2f6" rx="44.74" ry="44.799"/><ellipse cx="44.74" cy="256.61" fill="#7be2f6" rx="44.74" ry="44.799"/><g fill="#55d0f9"><ellipse cx="467.26" cy="126.953" rx="44.74" ry="44.799"/><ellipse cx="467.26" cy="386.267" rx="44.74" ry="44.799"/><ellipse cx="467.26" cy="256.61" rx="44.74" ry="44.799"/><ellipse cx="383.428" cy="44.799" rx="44.74" ry="44.799"/><ellipse cx="383.428" cy="467.201" rx="44.74" ry="44.799"/></g></g><g><g><path d="m256 512c-24.669 0-44.74-20.097-44.74-44.799s20.07-44.799 44.74-44.799 24.67 89.598 0 89.598z" fill="#7be2f6"/></g><g><path d="m256 422.402v89.598c24.67 0 44.74-20.097 44.74-44.799s-20.07-44.799-44.74-44.799z" fill="#55d0f9"/></g></g><g><path d="m256 154.909h100.627v201.253h-100.627z" fill="#67b821"/></g><g><path d="m258.854 312.54h-59.858v-114.01h59.858z" fill="#badb47"/></g><g><path d="m256 198.531h57.004v114.01h-57.004z" fill="#92ca32"/></g></g></svg>