<svg id="Capa_1" enable-background="new 0 0 512 512" height="512" viewBox="0 0 512 512" width="512" xmlns="http://www.w3.org/2000/svg"><g><path d="m253.553 276.268 22.727-22.727c2.23-2.23 2.23-5.847 0-8.077l-15.998-15.998c-1.908-1.908-2.205-4.882-.743-7.15 8.177-12.684 13.806-26.532 16.892-40.82.57-2.64 2.883-4.536 5.584-4.536h22.641c3.154 0 5.711-2.557 5.711-5.711v-32.14c0-3.154-2.557-5.711-5.711-5.711h-22.641c-2.701 0-5.013-1.896-5.584-4.536-3.086-14.288-8.715-28.136-16.892-40.82-1.462-2.268-1.165-5.242.743-7.15l15.998-15.998c2.23-2.23 2.23-5.847 0-8.077l-22.727-22.727c-2.23-2.23-5.847-2.23-8.077 0l-15.998 15.998c-1.908 1.908-4.882 2.205-7.15.743-12.684-8.177-26.532-13.806-40.82-16.892-2.64-.57-4.536-2.883-4.536-5.584v-22.641c0-3.154-2.557-5.711-5.711-5.711h-32.14c-3.154 0-5.711 2.557-5.711 5.711v22.641c0 2.701-1.896 5.013-4.536 5.584-14.288 3.087-28.137 8.715-40.82 16.892-2.268 1.462-5.242 1.165-7.15-.743l-16.001-16.001c-2.23-2.23-5.847-2.23-8.077 0l-22.727 22.727c-2.23 2.23-2.23 5.847 0 8.077l15.998 15.998c1.908 1.908 2.205 4.882.743 7.15-8.177 12.684-13.806 26.532-16.892 40.82-.57 2.64-2.883 4.536-5.584 4.536h-22.641c-3.154 0-5.711 2.557-5.711 5.711v32.14c0 3.154 2.557 5.711 5.711 5.711h22.641c2.701 0 5.013 1.896 5.584 4.536 3.087 14.288 8.715 28.136 16.892 40.82 1.462 2.268 1.165 5.242-.743 7.15l-15.998 15.998c-2.23 2.23-2.23 5.847 0 8.077l22.727 22.727c2.23 2.23 5.847 2.23 8.077 0l15.998-15.998c1.908-1.908 4.882-2.205 7.15-.743 12.684 8.177 26.532 13.806 40.82 16.892 2.64.57 4.536 2.883 4.536 5.584v22.641c0 3.154 2.557 5.711 5.711 5.711h32.14c3.154 0 5.711-2.557 5.711-5.711v-22.641c0-2.701 1.896-5.013 4.536-5.584 14.288-3.087 28.137-8.715 40.82-16.892 2.268-1.462 5.242-1.165 7.15.743l15.998 15.998c2.233 2.233 5.85 2.233 8.08.003z" fill="#596c76"/><path d="m205.999 259.917 5.208 5.979c-9.494 4.809-19.482 8.32-29.696 10.523-2.646.566-4.541 2.883-4.541 5.581v22.643c0 3.151-2.554 5.715-5.715 5.715h-18.946c.937-1.019 1.503-2.379 1.503-3.872v-28.74c0-2.739 1.915-5.076 4.582-5.653 14.457-3.12 27.547-4.659 40.377-12.928 2.296-1.482 5.303-1.173 7.228.752z" fill="#465a61"/><path d="m280.896 133.283h-20.841c-2.739 0-5.076-1.915-5.653-4.582-3.12-14.457-8.814-28.46-17.082-41.29-1.483-2.286-1.184-5.303.752-7.228l16.176-16.176c2.255-2.265 2.255-5.921 0-8.176l-15.26-15.26 6.487-6.487c2.234-2.224 5.849-2.224 8.083 0l22.725 22.735c2.224 2.224 2.224 5.838 0 8.073l-16.001 16.001c-1.905 1.905-2.204 4.881-.741 7.146 8.176 12.686 13.808 26.535 16.887 40.817.493 2.265 2.264 3.984 4.468 4.427z" fill="#465a61"/><circle cx="155.189" cy="155.177" fill="#333" r="50.81"/><path d="m191.118 191.11c-19.039 19.039-49.414 19.811-69.38 2.306 17.196 4.953 36.471.649 50.012-12.892 19.842-19.842 19.842-52.009 0-71.862-.803-.803-1.637-1.575-2.482-2.306 8.001 2.296 15.548 6.59 21.85 12.891 19.842 19.843 19.842 52.021 0 71.863z" fill="#333"/><g><path d="m441.691 469.823 28.12-28.12c2.76-2.76 2.76-7.234 0-9.994l-19.795-19.795c-2.361-2.361-2.728-6.041-.919-8.847 10.118-15.694 17.082-32.829 20.901-50.507.706-3.267 3.567-5.612 6.909-5.612h28.014c3.903 0 7.067-3.164 7.067-7.067v-39.768c0-3.903-3.164-7.067-7.067-7.067h-28.014c-3.342 0-6.203-2.346-6.909-5.612-3.819-17.679-10.783-34.814-20.901-50.507-1.809-2.806-1.442-6.486.919-8.847l19.795-19.795c2.76-2.76 2.76-7.234 0-9.994l-28.12-28.12c-2.76-2.76-7.234-2.76-9.994 0l-19.795 19.795c-2.361 2.361-6.041 2.728-8.847.919-15.694-10.118-32.829-17.082-50.507-20.901-3.267-.706-5.612-3.567-5.612-6.909v-28.014c0-3.903-3.164-7.067-7.067-7.067h-39.768c-3.903 0-7.067 3.164-7.067 7.067v28.014c0 3.342-2.346 6.203-5.612 6.909-17.679 3.819-34.814 10.783-50.507 20.901-2.806 1.809-6.486 1.442-8.847-.919l-19.795-19.795c-2.76-2.76-7.234-2.76-9.994 0l-28.12 28.12c-2.76 2.76-2.76 7.234 0 9.994l19.795 19.795c2.361 2.361 2.728 6.041.919 8.847-10.118 15.694-17.082 32.829-20.901 50.508-.706 3.267-3.567 5.612-6.909 5.612h-28.014c-3.903 0-7.067 3.164-7.067 7.067v39.768c0 3.903 3.164 7.067 7.067 7.067h28.014c3.342 0 6.203 2.346 6.909 5.612 3.819 17.679 10.783 34.814 20.901 50.507 1.809 2.806 1.442 6.486-.919 8.847l-19.795 19.795c-2.76 2.76-2.76 7.234 0 9.994l28.12 28.12c2.76 2.76 7.234 2.76 9.994 0l19.795-19.795c2.361-2.361 6.041-2.728 8.847-.919 15.694 10.118 32.829 17.082 50.507 20.901 3.267.706 5.612 3.567 5.612 6.909v28.014c0 3.903 3.164 7.067 7.067 7.067h39.768c3.903 0 7.067-3.164 7.067-7.067v-28.014c0-3.342 2.346-6.203 5.612-6.909 17.679-3.819 34.814-10.783 50.508-20.901 2.806-1.809 6.486-1.442 8.847.919l19.795 19.795c2.759 2.759 7.233 2.759 9.993-.001z" fill="#9facba"/><g fill="#8d9ca8"><path d="m449.094 403.069c-1.802 2.801-1.442 6.487.927 8.845l19.79 19.791c2.76 2.759 2.76 7.238 0 9.998l-28.121 28.121c-2.76 2.759-7.239 2.759-9.998 0l-6.806-6.806 22.612-22.622c2.76-2.76 2.76-7.239 0-9.998l-19.79-19.791c-2.358-2.368-2.729-6.044-.916-8.855 10.111-15.692 17.082-29.521 20.892-47.201.71-3.264 3.573-5.612 6.909-5.612h17.412c-.988.958-1.699 2.203-2.008 3.625-3.82 17.679-10.781 34.813-20.903 50.505z"/><path d="m472.829 291.729h-18.236c-3.336 0-6.199-2.337-6.909-5.612-3.81-17.68-10.781-34.814-20.892-50.506-1.812-2.801-1.442-6.487.916-8.845l19.79-19.801c2.76-2.759 2.76-7.228 0-9.988l-21.304-21.304 5.499-5.509c2.76-2.76 7.239-2.76 9.998 0l28.121 28.121c2.76 2.759 2.76 7.238 0 9.998l-19.79 19.79c-2.368 2.368-2.729 6.044-.927 8.855 10.122 15.692 17.082 32.826 20.903 50.506.39 1.793 1.42 3.296 2.831 4.295z"/><path d="m511.987 300.111v39.766c0 3.903-3.161 7.074-7.064 7.074h-17.412c1.339-1.277 2.162-3.079 2.162-5.077v-43.071c0-2.368-1.174-4.479-2.965-5.756h18.215c3.903 0 7.064 3.161 7.064 7.064z"/></g><circle cx="319.984" cy="319.996" fill="#596c76" r="91.404"/><path d="m384.616 384.627c-28.018 28.018-69.699 34.052-103.596 18.081 29.325 6.312 61.153-1.925 83.94-24.712 35.699-35.699 35.699-93.567 0-129.266-7.681-7.681-16.382-13.715-25.68-18.081 16.619 3.563 32.425 11.8 45.337 24.712 35.698 35.699 35.698 93.567-.001 129.266z" fill="#465a61"/><circle cx="319.984" cy="319.996" fill="#333" r="52.491"/><path d="m357.103 357.114c-20.501 20.501-53.739 20.501-74.23 0-.649-.649-1.266-1.298-1.874-1.967 19.296 8.639 42.742 5.045 58.579-10.801 19.852-19.852 20.48-51.639 1.884-72.253 5.674 2.543 10.987 6.137 15.641 10.791 20.501 20.491 20.501 53.729 0 74.23z" fill="#333"/></g></g></svg>