<svg id="Capa_1" enable-background="new 0 0 512 512" height="512" viewBox="0 0 512 512" width="512" xmlns="http://www.w3.org/2000/svg"><g><path fill="#EEE" d="m234.716 327.304h-50.021v-157.608c0-8.284-6.716-15-15-15s-15 6.716-15 15v172.608c0 8.284 6.716 15 15 15h65.021c8.284 0 15-6.716 15-15s-6.716-15-15-15z"/><path fill="#EEE" d="m342.648 154.696h-65.021c-8.284 0-15 6.716-15 15s6.716 15 15 15h50.021v157.608c0 8.284 6.716 15 15 15s15-6.716 15-15v-172.608c0-8.284-6.715-15-15-15z"/><path fill="#EEE" d="m497 80.825c-8.284 0-15 6.716-15 15v58.871h-64.696v-21.27c0-21.356-17.375-38.73-38.73-38.73h-20.925v-79.696c0-8.284-6.716-15-15-15s-15 6.716-15 15v79.696h-56.649v-79.696c0-8.284-6.716-15-15-15s-15 6.716-15 15v79.696h-56.304v-79.696c0-8.284-6.716-15-15-15h-73.871c-8.284 0-15 6.716-15 15s6.716 15 15 15h58.871v64.696h-21.27c-21.356 0-38.73 17.375-38.73 38.73v20.925h-79.696c-8.284 0-15 6.716-15 15s6.716 15 15 15h79.696v56.649h-79.696c-8.284 0-15 6.716-15 15s6.716 15 15 15h79.696v56.304h-79.696c-8.284 0-15 6.716-15 15v73.871c0 8.284 6.716 15 15 15s15-6.716 15-15v-58.871h64.696v21.27c0 21.356 17.375 38.73 38.73 38.73h20.925v79.696c0 8.284 6.716 15 15 15s15-6.716 15-15v-79.696h56.649v79.696c0 8.284 6.716 15 15 15s15-6.716 15-15v-79.696h56.304v79.696c0 8.284 6.716 15 15 15h73.871c8.284 0 15-6.716 15-15s-6.716-15-15-15h-58.871v-64.696h21.27c21.356 0 38.73-17.375 38.73-38.73v-20.925h79.696c8.284 0 15-6.716 15-15s-6.716-15-15-15h-79.696v-56.649h79.696c8.284 0 15-6.716 15-15s-6.716-15-15-15h-79.696v-56.304h79.696c8.284 0 15-6.716 15-15v-73.871c0-8.284-6.716-15-15-15zm-109.696 297.749c0 4.814-3.917 8.73-8.73 8.73h-245.148c-4.814 0-8.73-3.917-8.73-8.73v-245.148c0-4.814 3.917-8.73 8.73-8.73h245.147c4.814 0 8.73 3.917 8.73 8.73v245.148z"/><path fill="#EEE" d="m286 211h-60c-8.284 0-15 6.716-15 15v60c0 8.284 6.716 15 15 15h60c8.284 0 15-6.716 15-15v-60c0-8.284-6.716-15-15-15zm-15 60h-30v-30h30z"/></g></svg>