<svg id="bold" enable-background="new 0 0 24 24" height="512" viewBox="0 0 24 24" width="512" xmlns="http://www.w3.org/2000/svg">
    <defs>
        <linearGradient id="red" x2="0" y2="100%">
            <stop offset="0%" stop-color="#C50" stop-opacity="1" />
            <stop offset="100%" stop-color="#A30" stop-opacity="0.2" />
        </linearGradient>
    </defs>

    <defs>
        <linearGradient id="blue" x2="0%" y2="100%">
            <stop offset="0%" stop-color="#05A" stop-opacity="0.2" />
            <stop offset="100%" stop-color="#0AF" stop-opacity="1" />
        </linearGradient>
    </defs>

    <g transform="skewY(20) scale(0.9 0.5) translate(6 31) rotate(-110)">
        <path fill="#C50" d="m23.383 2.076c-.374-.155-.804-.07-1.09.217l-4 4c-.286.286-.372.716-.217 1.09.154.373.52.617.924.617h4c.553 0 1-.448 1-1v-4c0-.404-.243-.769-.617-.924z"/><path fill="#0AF" d="m5 16h-4c-.553 0-1 .448-1 1v4c0 .404.243.769.617.924.124.051.254.076.383.076.26 0 .516-.102.707-.293l4-4c.286-.286.372-.716.217-1.09-.154-.373-.52-.617-.924-.617z"/><path fill="url(#red)" d="m1.001 11.56c-.043 0-.086-.002-.13-.008-.548-.071-.934-.573-.862-1.121.773-5.947 5.932-10.431 12.001-10.431 3.69 0 7.324 1.63 9.722 4.36.365.415.324 1.047-.091 1.411-.415.363-1.047.323-1.411-.092-2.024-2.304-5.097-3.679-8.22-3.679-5.067 0-9.373 3.735-10.019 8.689-.065.504-.495.871-.99.871z"/><path fill="url(#blue)" d="m12 24c-3.685 0-7.322-1.629-9.73-4.358-.365-.414-.326-1.046.088-1.412.414-.363 1.045-.327 1.412.088 2.034 2.306 5.111 3.682 8.23 3.682 5.066 0 9.373-3.735 10.019-8.689.071-.548.568-.941 1.12-.863.548.071.934.573.862 1.121-.773 5.947-5.933 10.431-12.001 10.431z"/>
    </g>
</svg>